<?xml version="1.0" encoding="UTF-8"?>
<svg xmlns="http://www.w3.org/2000/svg" xmlns:xlink="http://www.w3.org/1999/xlink" viewBox="0 0 1000 1000">
  <defs>
    <style>
      .cls-1 {
        filter: url(#drop-shadow-18);
      }

      .cls-1, .cls-2, .cls-3, .cls-4, .cls-5, .cls-6, .cls-7, .cls-8, .cls-9, .cls-10, .cls-11, .cls-12, .cls-13 {
        fill: #fdf3c9;
      }

      .cls-2 {
        filter: url(#drop-shadow-12);
      }

      .cls-14 {
        filter: url(#drop-shadow-17);
      }

      .cls-14, .cls-15, .cls-16, .cls-17, .cls-18, .cls-19, .cls-20, .cls-21, .cls-22, .cls-23, .cls-24, .cls-25, .cls-26, .cls-27 {
        fill: #badef2;
      }

      .cls-3 {
        filter: url(#drop-shadow-25);
      }

      .cls-15 {
        filter: url(#drop-shadow-39);
      }

      .cls-4 {
        filter: url(#drop-shadow-23);
      }

      .cls-28 {
        fill: #f8bac5;
      }

      .cls-5 {
        filter: url(#drop-shadow-14);
      }

      .cls-29 {
        filter: url(#drop-shadow-36);
      }

      .cls-29, .cls-30, .cls-31, .cls-32 {
        fill: #cce7d3;
      }

      .cls-16 {
        filter: url(#drop-shadow-19);
      }

      .cls-17 {
        filter: url(#drop-shadow-13);
      }

      .cls-6 {
        filter: url(#drop-shadow-20);
      }

      .cls-7 {
        filter: url(#drop-shadow-10);
      }

      .cls-30 {
        filter: url(#drop-shadow-34);
      }

      .cls-8 {
        filter: url(#drop-shadow-31);
      }

      .cls-18 {
        filter: url(#drop-shadow-22);
      }

      .cls-31 {
        filter: url(#drop-shadow-35);
      }

      .cls-19 {
        filter: url(#drop-shadow-15);
      }

      .cls-20 {
        filter: url(#drop-shadow-28);
      }

      .cls-21 {
        filter: url(#drop-shadow-11);
      }

      .cls-22 {
        filter: url(#drop-shadow-32);
      }

      .cls-9 {
        filter: url(#drop-shadow-38);
      }

      .cls-33 {
        fill: #fff;
        filter: url(#drop-shadow-8);
      }

      .cls-23 {
        filter: url(#drop-shadow-9);
      }

      .cls-24 {
        filter: url(#drop-shadow-21);
      }

      .cls-10 {
        filter: url(#drop-shadow-29);
      }

      .cls-25 {
        filter: url(#drop-shadow-26);
      }

      .cls-11 {
        filter: url(#drop-shadow-16);
      }

      .cls-26 {
        filter: url(#drop-shadow-30);
      }

      .cls-12 {
        filter: url(#drop-shadow-27);
      }

      .cls-13 {
        filter: url(#drop-shadow-33);
      }

      .cls-27 {
        filter: url(#drop-shadow-24);
      }

      .cls-32 {
        filter: url(#drop-shadow-37);
      }
    </style>
    <filter id="drop-shadow-8" x="125.52" y="372.72" width="761.04" height="266.4" filterUnits="userSpaceOnUse">
      <feOffset dx="6" dy="6"/>
      <feGaussianBlur result="blur" stdDeviation="2"/>
      <feFlood flood-color="#edafcf" flood-opacity=".75"/>
      <feComposite in2="blur" operator="in"/>
      <feComposite in="SourceGraphic"/>
    </filter>
    <filter id="drop-shadow-9" x="141.59" y="436.69" width="76.71" height="66.63" filterUnits="userSpaceOnUse">
      <feOffset dx="6" dy="6"/>
      <feGaussianBlur result="blur-2" stdDeviation="0"/>
      <feFlood flood-color="#edafcf" flood-opacity=".75"/>
      <feComposite in2="blur-2" operator="in"/>
      <feComposite in="SourceGraphic"/>
    </filter>
    <filter id="drop-shadow-10" x="216.48" y="459.54" width="57.25" height="55.49" filterUnits="userSpaceOnUse">
      <feOffset dx="6" dy="6"/>
      <feGaussianBlur result="blur-3" stdDeviation="0"/>
      <feFlood flood-color="#edafcf" flood-opacity=".75"/>
      <feComposite in2="blur-3" operator="in"/>
      <feComposite in="SourceGraphic"/>
    </filter>
    <filter id="drop-shadow-11" x="271.92" y="460.99" width="34.96" height="52.6" filterUnits="userSpaceOnUse">
      <feOffset dx="6" dy="6"/>
      <feGaussianBlur result="blur-4" stdDeviation="0"/>
      <feFlood flood-color="#edafcf" flood-opacity=".75"/>
      <feComposite in2="blur-4" operator="in"/>
      <feComposite in="SourceGraphic"/>
    </filter>
    <filter id="drop-shadow-12" x="311.92" y="435.47" width="27.89" height="67.28" filterUnits="userSpaceOnUse">
      <feOffset dx="6" dy="6"/>
      <feGaussianBlur result="blur-5" stdDeviation="0"/>
      <feFlood flood-color="#edafcf" flood-opacity=".75"/>
      <feComposite in2="blur-5" operator="in"/>
      <feComposite in="SourceGraphic"/>
    </filter>
    <filter id="drop-shadow-13" x="340.96" y="446.05" width="48.34" height="49.2" filterUnits="userSpaceOnUse">
      <feOffset dx="6" dy="6"/>
      <feGaussianBlur result="blur-6" stdDeviation="0"/>
      <feFlood flood-color="#edafcf" flood-opacity=".75"/>
      <feComposite in2="blur-6" operator="in"/>
      <feComposite in="SourceGraphic"/>
    </filter>
    <filter id="drop-shadow-14" x="391.89" y="422.34" width="65.44" height="69.83" filterUnits="userSpaceOnUse">
      <feOffset dx="6" dy="6"/>
      <feGaussianBlur result="blur-7" stdDeviation="0"/>
      <feFlood flood-color="#edafcf" flood-opacity=".75"/>
      <feComposite in2="blur-7" operator="in"/>
      <feComposite in="SourceGraphic"/>
    </filter>
    <filter id="drop-shadow-15" x="452.58" y="456.41" width="57.28" height="56.64" filterUnits="userSpaceOnUse">
      <feOffset dx="6" dy="6"/>
      <feGaussianBlur result="blur-8" stdDeviation="0"/>
      <feFlood flood-color="#edafcf" flood-opacity=".75"/>
      <feComposite in2="blur-8" operator="in"/>
      <feComposite in="SourceGraphic"/>
    </filter>
    <filter id="drop-shadow-16" x="503.5" y="473.88" width="48.99" height="49.71" filterUnits="userSpaceOnUse">
      <feOffset dx="6" dy="6"/>
      <feGaussianBlur result="blur-9" stdDeviation="0"/>
      <feFlood flood-color="#edafcf" flood-opacity=".75"/>
      <feComposite in2="blur-9" operator="in"/>
      <feComposite in="SourceGraphic"/>
    </filter>
    <filter id="drop-shadow-17" x="539.54" y="445.31" width="64.96" height="69.63" filterUnits="userSpaceOnUse">
      <feOffset dx="6" dy="6"/>
      <feGaussianBlur result="blur-10" stdDeviation="0"/>
      <feFlood flood-color="#edafcf" flood-opacity=".75"/>
      <feComposite in2="blur-10" operator="in"/>
      <feComposite in="SourceGraphic"/>
    </filter>
    <filter id="drop-shadow-18" x="647.79" y="434.15" width="53.52" height="71.26" filterUnits="userSpaceOnUse">
      <feOffset dx="6" dy="6"/>
      <feGaussianBlur result="blur-11" stdDeviation="0"/>
      <feFlood flood-color="#edafcf" flood-opacity=".75"/>
      <feComposite in2="blur-11" operator="in"/>
      <feComposite in="SourceGraphic"/>
    </filter>
    <filter id="drop-shadow-19" x="704.14" y="445.19" width="47.48" height="49.19" filterUnits="userSpaceOnUse">
      <feOffset dx="6" dy="6"/>
      <feGaussianBlur result="blur-12" stdDeviation="0"/>
      <feFlood flood-color="#edafcf" flood-opacity=".75"/>
      <feComposite in2="blur-12" operator="in"/>
      <feComposite in="SourceGraphic"/>
    </filter>
    <filter id="drop-shadow-20" x="751.67" y="455.48" width="52.52" height="49.71" filterUnits="userSpaceOnUse">
      <feOffset dx="6" dy="6"/>
      <feGaussianBlur result="blur-13" stdDeviation="0"/>
      <feFlood flood-color="#edafcf" flood-opacity=".75"/>
      <feComposite in2="blur-13" operator="in"/>
      <feComposite in="SourceGraphic"/>
    </filter>
    <filter id="drop-shadow-21" x="804.23" y="443.89" width="60.18" height="50.19" filterUnits="userSpaceOnUse">
      <feOffset dx="6" dy="6"/>
      <feGaussianBlur result="blur-14" stdDeviation="0"/>
      <feFlood flood-color="#edafcf" flood-opacity=".75"/>
      <feComposite in2="blur-14" operator="in"/>
      <feComposite in="SourceGraphic"/>
    </filter>
    <filter id="drop-shadow-22" x="241.62" y="530.16" width="49.68" height="46.89" filterUnits="userSpaceOnUse">
      <feOffset dx="6" dy="6"/>
      <feGaussianBlur result="blur-15" stdDeviation="0"/>
      <feFlood flood-color="#edafcf" flood-opacity=".75"/>
      <feComposite in2="blur-15" operator="in"/>
      <feComposite in="SourceGraphic"/>
    </filter>
    <filter id="drop-shadow-23" x="290.11" y="520.92" width="46.16" height="54.72" filterUnits="userSpaceOnUse">
      <feOffset dx="6" dy="6"/>
      <feGaussianBlur result="blur-16" stdDeviation="0"/>
      <feFlood flood-color="#edafcf" flood-opacity=".75"/>
      <feComposite in2="blur-16" operator="in"/>
      <feComposite in="SourceGraphic"/>
    </filter>
    <filter id="drop-shadow-24" x="335.08" y="526.7" width="48.02" height="30.79" filterUnits="userSpaceOnUse">
      <feOffset dx="6" dy="6"/>
      <feGaussianBlur result="blur-17" stdDeviation="0"/>
      <feFlood flood-color="#edafcf" flood-opacity=".75"/>
      <feComposite in2="blur-17" operator="in"/>
      <feComposite in="SourceGraphic"/>
    </filter>
    <filter id="drop-shadow-25" x="384.69" y="537.05" width="24.86" height="24.87" filterUnits="userSpaceOnUse">
      <feOffset dx="6" dy="6"/>
      <feGaussianBlur result="blur-18" stdDeviation="0"/>
      <feFlood flood-color="#edafcf" flood-opacity=".75"/>
      <feComposite in2="blur-18" operator="in"/>
      <feComposite in="SourceGraphic"/>
    </filter>
    <filter id="drop-shadow-26" x="412.87" y="510.55" width="55.75" height="57.09" filterUnits="userSpaceOnUse">
      <feOffset dx="6" dy="6"/>
      <feGaussianBlur result="blur-19" stdDeviation="0"/>
      <feFlood flood-color="#edafcf" flood-opacity=".75"/>
      <feComposite in2="blur-19" operator="in"/>
      <feComposite in="SourceGraphic"/>
    </filter>
    <filter id="drop-shadow-27" x="456.94" y="545.28" width="41.99" height="38.73" filterUnits="userSpaceOnUse">
      <feOffset dx="6" dy="6"/>
      <feGaussianBlur result="blur-20" stdDeviation="0"/>
      <feFlood flood-color="#edafcf" flood-opacity=".75"/>
      <feComposite in2="blur-20" operator="in"/>
      <feComposite in="SourceGraphic"/>
    </filter>
    <filter id="drop-shadow-28" x="498.88" y="534.38" width="48.17" height="55.58" filterUnits="userSpaceOnUse">
      <feOffset dx="6" dy="6"/>
      <feGaussianBlur result="blur-21" stdDeviation="0"/>
      <feFlood flood-color="#edafcf" flood-opacity=".75"/>
      <feComposite in2="blur-21" operator="in"/>
      <feComposite in="SourceGraphic"/>
    </filter>
    <filter id="drop-shadow-29" x="547.18" y="547.48" width="47.9" height="24.15" filterUnits="userSpaceOnUse">
      <feOffset dx="6" dy="6"/>
      <feGaussianBlur result="blur-22" stdDeviation="0"/>
      <feFlood flood-color="#edafcf" flood-opacity=".75"/>
      <feComposite in2="blur-22" operator="in"/>
      <feComposite in="SourceGraphic"/>
    </filter>
    <filter id="drop-shadow-30" x="595.22" y="537.05" width="24.87" height="24.87" filterUnits="userSpaceOnUse">
      <feOffset dx="6" dy="6"/>
      <feGaussianBlur result="blur-23" stdDeviation="0"/>
      <feFlood flood-color="#edafcf" flood-opacity=".75"/>
      <feComposite in2="blur-23" operator="in"/>
      <feComposite in="SourceGraphic"/>
    </filter>
    <filter id="drop-shadow-31" x="617.19" y="525.55" width="45.48" height="56.13" filterUnits="userSpaceOnUse">
      <feOffset dx="6" dy="6"/>
      <feGaussianBlur result="blur-24" stdDeviation="0"/>
      <feFlood flood-color="#edafcf" flood-opacity=".75"/>
      <feComposite in2="blur-24" operator="in"/>
      <feComposite in="SourceGraphic"/>
    </filter>
    <filter id="drop-shadow-32" x="660.91" y="522.78" width="50.82" height="48.51" filterUnits="userSpaceOnUse">
      <feOffset dx="6" dy="6"/>
      <feGaussianBlur result="blur-25" stdDeviation="0"/>
      <feFlood flood-color="#edafcf" flood-opacity=".75"/>
      <feComposite in2="blur-25" operator="in"/>
      <feComposite in="SourceGraphic"/>
    </filter>
    <filter id="drop-shadow-33" x="717.96" y="521.49" width="46.42" height="48.78" filterUnits="userSpaceOnUse">
      <feOffset dx="6" dy="6"/>
      <feGaussianBlur result="blur-26" stdDeviation="0"/>
      <feFlood flood-color="#edafcf" flood-opacity=".75"/>
      <feComposite in2="blur-26" operator="in"/>
      <feComposite in="SourceGraphic"/>
    </filter>
    <filter id="drop-shadow-34" x="356.25" y="556.85" width="77.26" height="60.21" filterUnits="userSpaceOnUse">
      <feOffset dx="6" dy="6"/>
      <feGaussianBlur result="blur-27" stdDeviation="0"/>
      <feFlood flood-color="#edafcf" flood-opacity=".75"/>
      <feComposite in2="blur-27" operator="in"/>
      <feComposite in="SourceGraphic"/>
    </filter>
    <filter id="drop-shadow-35" x="600.98" y="409.78" width="46.17" height="46.17" filterUnits="userSpaceOnUse">
      <feOffset dx="6" dy="6"/>
      <feGaussianBlur result="blur-28" stdDeviation="0"/>
      <feFlood flood-color="#edafcf" flood-opacity=".75"/>
      <feComposite in2="blur-28" operator="in"/>
      <feComposite in="SourceGraphic"/>
    </filter>
    <filter id="drop-shadow-36" x="471.55" y="388.94" width="70.62" height="67.58" filterUnits="userSpaceOnUse">
      <feOffset dx="6" dy="6"/>
      <feGaussianBlur result="blur-29" stdDeviation="0"/>
      <feFlood flood-color="#edafcf" flood-opacity=".75"/>
      <feComposite in2="blur-29" operator="in"/>
      <feComposite in="SourceGraphic"/>
    </filter>
    <filter id="drop-shadow-37" x="765.9" y="502.34" width="95.76" height="94.28" filterUnits="userSpaceOnUse">
      <feOffset dx="6" dy="6"/>
      <feGaussianBlur result="blur-30" stdDeviation="0"/>
      <feFlood flood-color="#edafcf" flood-opacity=".75"/>
      <feComposite in2="blur-30" operator="in"/>
      <feComposite in="SourceGraphic"/>
    </filter>
    <filter id="drop-shadow-38" x="602.86" y="458.52" width="32.65" height="65.47" filterUnits="userSpaceOnUse">
      <feOffset dx="4" dy="4"/>
      <feGaussianBlur result="blur-31" stdDeviation="0"/>
      <feFlood flood-color="#edafcf" flood-opacity=".75"/>
      <feComposite in2="blur-31" operator="in"/>
      <feComposite in="SourceGraphic"/>
    </filter>
    <filter id="drop-shadow-39" x="629.56" y="479.56" width="45.99" height="47.22" filterUnits="userSpaceOnUse">
      <feOffset dx="4" dy="4"/>
      <feGaussianBlur result="blur-32" stdDeviation="0"/>
      <feFlood flood-color="#edafcf" flood-opacity=".75"/>
      <feComposite in2="blur-32" operator="in"/>
      <feComposite in="SourceGraphic"/>
    </filter>
  </defs>
  <g id="Layer_3">
    <rect class="cls-28" x="-1.12" y="-.47" width="1001.12" height="1000.47"/>
  </g>
  <g id="Layer_2">
    <path class="cls-33" d="M863.17,540.31l-20.42-11.79,4.9-23.06c.47-2.2.42-4.42-.07-6.51.72.07,1.42.11,2.08.11,1.09,0,2.11-.09,3.12-.29,3.92-.75,7.41-2.73,10.14-5.75.45-.48,1.68-1.77,2.91-3.08,1-1.07,2-2.12,2.91-3.21h0c3.73-3.89,5.36-9.32,4.38-14.49-.83-4.39-3.36-8.19-7.19-10.86l-.42-2.21c-3.44-18.12-18.71-30.29-38.01-30.29-2.96,0-6,.29-9,.86-2.92.55-5.8,1.36-8.75,2.46l-6.22.84c-.28.04-.56.08-.84.14l-.09.02c-5.63,1.07-10.12,5.04-12.17,10.13-4.44-1.81-9.46-2.85-15-2.85-7.23,0-13.82,1.64-19.43,4.59-.52-.56-1.07-1.09-1.68-1.59-.15-.13-.31-.25-.47-.37-2.78-2.11-5.79-3.92-8.94-5.35-4.13-1.88-8.6-3.22-13.32-3.98l-5.97-2.36c-1.98-.82-4.07-1.23-6.23-1.23-4.63,0-8.97,1.97-12.05,5.26l-1.01-3.71c-1.88-7.43-8.52-12.58-16.32-12.58-1.22,0-2.44.13-3.63.39-.26.06-.51.12-.77.19l-27.53,7.6-1.99.55c-1.03-18.43-16.34-33.11-35.03-33.11s-35.09,15.74-35.09,35.09c0,7.43,2.33,14.33,6.29,20.01-.17.18-.33.36-.49.55-3.23-2.89-7.23-4.47-11.44-4.47-1.16,0-2.32.12-3.44.36-1.09.23-2.51.53-4.58,1.65l-1.42-5.35c-.05-.19-.1-.37-.16-.56-2.16-7.02-8.49-11.74-15.76-11.74-1.13,0-2.27.12-3.33.34l-.14.03c-.26.05-.52.12-.78.18l-1.83.48c-.36-.58-.76-1.14-1.21-1.68l-42.04-50.35c-2.88-3.45-7.11-5.39-11.51-5.39-.85,0-1.71.07-2.57.22-5.28.92-9.67,4.58-11.51,9.61l-18.19,49.62c-5.78-11.11-16.99-19.38-31.66-22.75-4.16-.96-8.38-1.44-12.54-1.44-.8,0-1.6.02-2.39.06l-9.43-1.62c-1.01-.19-2.04-.29-3.06-.29-7.7,0-14.56,5.49-16.3,13.06-.06.26-.11.52-.16.78l-2.64,15.13c-5.07-3.28-11.42-5.26-19.03-5.26s-13.66,1.52-18.95,4.11c-4.11-8.68-12.93-14.7-23.13-14.7-14.12,0-25.62,11.47-25.65,25.59-3.05.14-6.08.56-9.02,1.29-4.41,1.08-8.75,2.81-12.91,5.14l-6.15,1.85c-.36.1-.7.23-1.04.35l-7.73-3.16c-.39-.16-.79-.3-1.2-.43l-.36-.11c-.48-.15-.97-.28-1.45-.39-2.95-1.84-6.2-3.35-9.51-4.37-3.58-1.11-7.2-1.68-10.77-1.68s-6.71.51-9.73,1.43l.26-5.89c0-.22.01-.44.01-.66v-.14c0-9.13-6.89-16.38-16.05-16.85l-14.33-.72c-.25-.01-.5-.02-.75-.02h-.14c-5.37,0-10.67,2.4-13.94,6.29-1.47,1.74-3.21,4.11-5.08,6.84-1.89-2.77-3.64-5.16-5.09-6.88h0c-3.89-4.61-10.04-6.26-14.19-6.26h-.14c-.28,0-.56,0-.84.02l-14.19.79c-.25.01-.49.03-.74.06-8.68.92-15.22,8.2-15.22,16.93,0,.25,0,.5.02.75l2.8,55.53c.29,9.17,7.78,16.54,17.01,16.54.42,0,.83-.02,1.25-.05,0,0,13.9-1.16,13.93-1.16,6.98-.63,12.94-5.51,15.23-11.82,2.22,6.53,8.27,11.46,15.39,11.92l14.51,1.07c.37.03.74.04,1.11.04h.07c3.22,0,6.25-.94,8.83-2.57,3.4,2.5,7.23,4.44,11.36,5.73,3.07.95,6.24,1.52,9.47,1.69,2.81,2.57,5.81,4.51,8.36,5.57-4.1,1.03-6.99,1.75-6.99,1.75-8.21,2.04-13.43,9.86-12.14,18.17l.02.11c.07.48.17.95.29,1.42l2.32,9.13c1.68,6.71,7.36,11.53,14.1,12.18.98,5.55,4.79,10.17,10.28,12.49,3.37,1.51,13.47,5.59,16.59,6.8.03.01.06.02.09.04,2.13.81,4.21,1.21,6.34,1.21.85,0,1.7-.07,2.51-.19,2.98-.46,8.53-2.2,12.19-8.71.02-.03,5.07-9.17,5.07-9.17.17-.31.33-.63.48-.95.03-.07.06-.14.09-.21.02,0,.05,0,.07,0,.44,0,.88-.02,1.31-.05-.08,1.67.1,3.3.52,4.9,1.68,6.29,6.88,10.82,13.33,11.65l7.16,1.03c.8.12,2.01.29,3.47.29s3.05-.2,4.48-.58c4.29-1.15,7.91-3.96,10.19-7.92.04-.06.07-.12.11-.19,1.41-2.52,2.6-5.11,3.61-7.76-.92,7.81,1.34,15.58,6.43,21.74.06.08,26.55,30.91,26.55,30.91,1.3,1.51,2.89,2.75,4.67,3.64h0c2.11,1.06,4.41,1.58,6.71,1.58,2.15,0,4.31-.46,6.31-1.39.46-.21.91-.45,1.35-.71,0,0,35.04-20.31,35.13-20.36,7.74-4.69,12.75-12.55,13.75-21.55.46-4.17.02-8.28-1.24-12.12,1.27.38,2.75.65,4.44.65.83,0,1.89-.07,3.07-.31,1.16,1.32,2.47,2.37,3.85,3.18-.02.29-.02.57-.02.86,0,6.51,3.86,12.36,9.84,14.92.18.08.35.15.53.22l6.46,2.47c.19.07.38.14.57.2,1.77.6,3.57.9,5.35.9,4.42,0,8.61-1.81,11.61-4.9,1.84-1.64,3.61-3.46,5.27-5.38,2.47,1.5,5.37,2.36,8.49,2.36.29,0,.58,0,.87-.03l.81-.05c.02.15.05.3.07.44,1.42,7.82,8.24,13.5,16.22,13.5h.11c.29,0,.59,0,.88-.03,0,0,9.67-.57,9.76-.58,8.54-.66,14.99-7.62,15.02-16.19,1.35-.39,2.62-.95,3.8-1.66.66.08,1.32.14,1.99.14.78,0,1.57-.06,2.38-.18l37.63-5.63c3.57-.53,6.69-2.19,9.08-4.53,1.75.4,3.58.62,5.45.62,4.23,0,8.21-1.08,11.68-2.98l5.39,12.87c2.5,5.99,8.32,9.86,14.82,9.86,2.17,0,4.28-.43,6.26-1.26l10.2-4.27c5.54-2.32,9.09-7.41,9.74-12.99,8.46,2.25,28.26,7.51,28.26,7.51.18.05.36.09.54.13l.08.02c1.38.32,2.79.48,4.2.48,5.65,0,10.74-2.61,14.05-6.88,2.25,2.72,5.35,4.67,8.86,5.46,1.15.26,2.34.39,3.53.39.58,0,1.08-.03,1.47-.06,10.31-.66,20.61-2.92,30.74-6.73,2.82,3.3,6.98,5.27,11.41,5.27.52,0,1.05-.03,1.57-.08l23.45-2.46,9.59,21.54c2.43,5.45,7.83,8.9,13.7,8.9.52,0,1.05-.03,1.57-.08,6.46-.68,11.75-5.44,13.1-11.8l4.9-23.06,23.45-2.46c6.46-.68,11.75-5.44,13.1-11.8,1.35-6.36-1.54-12.86-7.17-16.11Z"/>
    <path class="cls-23" d="M207.84,497.32l-14.62-1.08c-1.58-.07-2.3-1.66-2.3-2.45v-.07l3.38-31.11v-.36c0-.5-.07-.79-.29-.79-.14,0-.36.22-.65.58-1.3,1.8-6.55,13.03-10.08,19.66-.29.58-1.08,1.58-2.66,1.66l-7.42.29c-1.3,0-2.02-1.08-2.45-1.94-3.6-6.62-8.86-17.43-10.23-19.3-.29-.36-.5-.58-.72-.58-.14,0-.22.29-.22.72v.5l3.24,30.6v.07c0,.79-1.01,2.3-2.59,2.45l-13.83,1.15h-.07c-1.15,0-1.94-1.08-1.94-2.09l-2.81-55.73c0-.79.43-1.87,1.8-2.02l14.19-.79h.14c1.01,0,2.45.58,2.74.94,3.53,4.18,10.3,14.83,16.2,24.99.14.22.22.29.36.29s.22-.14.36-.36c5.9-10.15,12.67-20.74,16.2-24.91.29-.36,1.44-.94,2.45-.94h.14l14.33.72c1.37.07,1.8,1.08,1.8,1.87v.14l-2.45,55.81c-.07,1.01-.86,2.09-1.94,2.09h-.07Z"/>
    <path class="cls-7" d="M254.53,507.84c-.98.98-1.86,1.38-2.76,1.1-.69-.21-5.16-2.81-7.59-7.11-4.15.75-8.12.42-11.63-.67-11.48-3.57-18.65-15.45-15.21-26.52,2.57-8.25,12.11-18.33,25.72-14.1,3.44,1.07,6.57,2.87,8.89,4.88.56-.35,1.25-.37,2.07-.11l.34.11,11.57,4.73c1.75.69,1.95,1.74,1.69,2.56l-.11.34c-2.91,5.96-5.73,11.64-7.14,16.18-1.28,4.13-1.45,7.32.39,9.17.58.56,1.21,1.21.99,1.89-.04.14-.18.32-.4.55l-6.85,6.99ZM244.27,483.61c.56-1.79,1.2-3.62,1.98-5.64-.4-1.63-1.95-3.17-3.95-3.79-4.33-1.35-8.04,2.1-9.13,5.61-1.2,3.85.46,7.98,4.93,9.37,1.31.41,2.9.6,4.7.41.35-1.85.81-3.82,1.47-5.95Z"/>
    <path class="cls-21" d="M284.75,507.53c-.84.21-1.68-.18-1.88-1.02l-10.9-35.88c-.21-.84.25-1.69,1.02-1.88l8.01-2.41c3.48-2.12,6.98-3.57,10.48-4.43,2.38-.58,4.75-.87,7.04-.92,1.12.02,1.67.48,1.88,1.32.07.28.07.58.08.94l.4,10.36c.03,1.03-.55,1.69-1.39,1.9-.21.05-.51.05-.8.05-1.2-.07-2.45,0-3.63.3-.98.24-1.92.62-2.97,1.18l7.42,24.43.03.14c.19.77-.29,1.55-1.05,1.74l-13.73,4.19Z"/>
    <path class="cls-2" d="M322.57,456.71c-5.9,0-10.66-4.75-10.66-10.58s4.75-10.66,10.66-10.66,10.58,4.75,10.58,10.66-4.75,10.58-10.58,10.58ZM318.04,496.74h-.14c-.79,0-1.37-.65-1.44-1.44l-1.8-35.07c0-.86.58-1.51,1.44-1.58l14.4-.72h.14c.72,0,1.37.65,1.37,1.37l1.8,35.14v.14c0,.72-.65,1.37-1.37,1.44l-14.4.72Z"/>
    <path class="cls-17" d="M365.51,489.25c-16.35,0-24.55-11.16-24.55-22.11,0-10.3,7.27-21.1,23.69-21.1,17.86,0,18.65,15.91,18.65,18.29,0,3.31-1.37,6.05-5.62,7.49-3.38,1.15-8.71,1.94-12.46,2.09-1.15,0-1.51-.5-1.8-1.37-.86-2.38-2.23-7.06-2.23-7.34,0-.79.58-1.15,1.51-1.37,3.74-.86,4.25-1.01,4.25-2.02,0-.65-1.37-2.95-4.39-2.95-3.46,0-6.34,3.02-6.34,7.49,0,5.11,3.74,10.87,12.75,10.87.5,0,1.08,0,1.58-.07h.14c1.01,0,2.23.65,2.23,1.87,0,.72-1.87,5.62-2.95,8.06-.58,1.15-1.51,2.16-3.6,2.16h-.86Z"/>
    <path class="cls-5" d="M401.09,423.77c.21-.91,1.11-1.59,2.02-1.38l11.37,1.95c3.92-.35,8.21-.03,12.35.92,11.86,2.73,23.1,10.71,24.28,23.91.46,5.06.16,9.57-.74,13.5-4.57,19.86-24.48,26.73-44.4,22.15-3.23-.74-6.46-1.78-9.63-3.1-.53-.27-1.07-.47-1.55-.65-2.19-1.09-3.26-2.52-2.79-5.22l9.1-52.07ZM411.58,468.74c.54.2,1.11.33,1.67.46,8.14,1.87,16.22-2.4,18.27-11.31.27-1.19,3.4-15.1-9.58-18.09-1.68-.39-3.5-.51-5.21-.46l-5.14,29.41Z"/>
    <path class="cls-19" d="M475.46,501.95c-3.62-.01-7.02-.49-10.04-1.44-9.54-3.02-15.26-10.72-11.84-23.69,1.21-4.53,3.76-13.08,5.09-17.5.89-2.82,2.03-3.06,2.87-2.87.11-.12,10.99,2.5,12.16,2.87,1.37.43,1.71,1.3,1.51,2.14-1.04,4.73-2.08,8.48-4.26,16.78-1.6,5.99-.19,8.7,2.7,9.61,1.37.43,3.17.48,5.15.2l8.71-23.22c.33-.8,1.19-1.13,1.94-.89l13.42,5.08c.82.26,1.16,1.12.89,1.95l-13.16,35.11c-.33.8-1.19,1.13-1.94.89l-13.22-5.02Z"/>
    <path class="cls-11" d="M538.56,488.06c-.29.86-1.08,1.58-1.94,1.58-.29,0-.65-.14-.94-.36-1.3-1.08-3.82-1.87-6.34-1.87-1.87,0-8.14.43-8.14,8.28,0,4.83,3.46,7.99,8.14,7.99,3.1,0,6.7-1.37,10.15-4.54.43-.43,1.08-.79,1.73-.79.5,0,1.08.29,1.58,1.15,1.3,2.45,2.16,3.75,3.31,6.12.22.43.36.94.36,1.44,0,.86-.36,1.66-1.22,2.52-5.83,5.54-12.75,7.99-19.23,7.99-11.95,0-22.54-8.35-22.54-21.03,0-16.13,12.89-22.68,24.77-22.68,7.99,0,13.75,3.17,13.75,4.97,0,.14,0,.36-.07.5l-3.38,8.71Z"/>
    <path class="cls-14" d="M594.34,500.12c-.4.89-.87,1.43-1.58,1.58-.35.07-.8.02-1.29-.17-4.41-1.72-14.36-5.29-18.43-6.79-.48-.19-1.02-.67-1.16-1.3-.07-.35,0-.74.26-1.23l3.89-7.37c-3.16,2.8-6.03,5.24-7.29,6.25l-.38.3,3.17,11.91c.18.85-.24,1.67-1.08,1.85l-13.93,3.74c-.77.16-1.6-.25-1.85-1.08l-15.09-56.94-.03-.14c-.15-.7.35-1.47,1.04-1.69l13.94-3.67.14-.03c.77-.16,1.47.35,1.71,1.11l7.86,29.62c2.41-2.86,12.63-14.44,15.73-15.09.56-.12,1.26.03,2.01.83l7.85,8.28c.37.36.6.76.69,1.18.15.7-.14,1.43-.9,2.03-1.58,1.22-5.14,4.25-8.88,7.46,5.26.51,17.13,5.88,17.68,8.49.09.42.04.87-.2,1.51l-3.91,9.36Z"/>
    <path class="cls-1" d="M677.98,499.34l-.14.03c-.91.2-1.79-.42-1.97-1.26l-10.94-39.69-11.4,3.17c-.98.22-1.98-.3-2.18-1.22l-3.49-12.87-.03-.14c-.19-.84.36-1.7,1.26-1.97l13-3.59,27.53-7.6c.91-.2,1.98.3,2.2,1.29l3.46,12.73c.2.91-.32,1.91-1.29,2.2l-10.99,3.01,10.95,39.76.02.07c.2.91-.42,1.79-1.25,2.04l-14.74,4.05Z"/>
    <path class="cls-16" d="M705.11,483.02c-.79-.36-1.2-1.18-.84-1.97l13.71-34.9c.36-.79,1.25-1.17,1.97-.84l7.78,3.07c4.05.5,7.69,1.53,10.97,3.02,2.23,1.02,4.27,2.26,6.09,3.65.86.71,1.02,1.41.66,2.2-.12.26-.3.49-.52.79l-6.11,8.37c-.62.83-1.48.99-2.27.63-.2-.09-.43-.27-.66-.46-.9-.8-1.92-1.51-3.04-2.02-.92-.42-1.89-.71-3.06-.92l-9.34,23.76-.06.13c-.33.72-1.19,1.04-1.91.71l-13.37-5.23Z"/>
    <path class="cls-6" d="M773.7,499.19c-11.74,0-22.03-8.5-22.03-21.17,0-14.83,11.09-22.54,23.76-22.54,15.91,0,22.75,12.46,22.75,21.82,0,14.04-14.26,21.89-24.48,21.89ZM782.84,477.16c0-1.37-.29-8.35-7.63-8.35-6.05,0-7.78,5.11-7.78,8.35,0,4.97,3.89,8.28,7.99,8.28,5.11,0,7.42-4.18,7.42-8.28Z"/>
    <path class="cls-24" d="M851.22,464.31c.75,3.96,2.28,6.97,5.69,9.11.49.27,1.33.85,1.48,1.62.08.43-.05.89-.48,1.34.03.14-6.02,6.49-6.02,6.49-.6.7-1.27,1.05-1.9,1.17-1.27.24-13.3-1.36-15.69-13.95l-.46-2.41c-1.41-7.43-5.61-9.86-10.83-9.16l3.53,25.93c.13.71-.38,1.47-1.09,1.6l-.14.03-14.28,1.98c-.86.09-1.55-.44-1.71-1.29l-5.07-37.15c-.08-.79.44-1.55,1.15-1.68l.14-.03,8-1.08c2.65-1.09,5.22-1.87,7.76-2.35,14.36-2.73,26.92,3.98,29.48,17.49l.44,2.33Z"/>
    <path class="cls-18" d="M269.86,543.97l-24.49,6.58-.11.02c-.55.09-1.12-.28-1.27-.88l-2.33-9.18-.02-.11c-.09-.61.33-1.19.93-1.34l34.34-8.63c.22-.03.43-.12.71-.17,2.83-.44,6.94.4,7.55,4.34.43,2.77-.04,10.74-3.28,16.93-.4.74-.71,1.3-1.54,1.43-.17.03-6.42-.37-8.18-.72-.81-.1-1.17-.61-1.26-1.17-.03-.17-.04-.28-.01-.45.1-1.89.05-5.52-.02-5.96-.09-.55-.35-.8-.91-.71l-.11.02ZM278.47,569.8c-.49.87-.95,1.17-1.4,1.24-.39.06-.8-.05-1.23-.21-3.45-1.34-13.57-5.45-16.08-6.6-.73-.28-1.38-.81-1.46-1.36-.03-.22-.01-.45.13-.64l4.11-6.49c.46-.7.98-1.4,1.86-1.54,1.94-.3,14.84,2.24,17.99,3.91.69.4,1.17.95,1.27,1.56.05.33,0,.68-.18,1.05l-5.01,9.07Z"/>
    <path class="cls-4" d="M305.86,550.04l-8.2,1.73c-.88.18-1.56-.16-1.9-1.47-1.08-4.01-3.8-12.64-5.36-16.93-.06-.22-.17-.42-.21-.58-.22-.81,0-1.28,1.36-1.64l9.96-2.73c1.46-.39,2.11-.16,3.69,5.75,1.28,4.77,2.3,10.95,2.36,13.78.03,1.21-.68,1.81-1.55,2.04l-.16.04ZM314.4,568.45c-.48-.05-.73-.33-.81-.65-.12-.43.08-1.01.29-1.53,4.55-10.12,2.9-22.99.02-33.72-.64-2.39-1.37-4.69-2.06-6.83l-.04-.16c-.25-.92.11-1.77,1.14-2.05l9.57-2.45c1.9-.51,2.31.6,2.64,1.38,1.18,2.88,2.16,5.87,2.97,8.91,3.27,12.2,3.35,25.26-3.37,37.29-.28.48-.65.81-1.09.93-.54.15-1.21.03-2.06-.09l-7.2-1.03Z"/>
    <path class="cls-27" d="M340.29,551.43c-.58.21-1.51-.06-1.75-.75l-3.41-9.63c-.22-.64.28-1.41.86-1.61l35.96-12.66c.58-.21,1.46.08,1.7.77l3.39,9.58c.22.64-.29,1.35-.88,1.56l-35.87,12.75Z"/>
    <path class="cls-3" d="M394.12,555.92c-5.22,0-9.43-4.21-9.43-9.43s4.21-9.43,9.43-9.43,9.43,4.21,9.43,9.43-4.21,9.43-9.43,9.43Z"/>
    <path class="cls-25" d="M446.89,554.68c-.56.67-.95.9-1.35.9-.28,0-.51-.17-.84-.39-.84-.45-2.75-1.8-5.11-3.42-7.8,6.62-14.65,9.88-15.27,9.88-.56,0-1.46-.28-2.19-1.01l-4.88-4.94c-.28-.28-.39-.56-.39-.84,0-.34.28-.79.9-1.18,3.65-2.3,7.75-5.61,11.51-9.21l-5.61-3.99c-.62-.39-1.12-.95-1.12-1.46,0-.17.06-.34.22-.51l4.32-4.6c.45-.51.84-.73,1.4-.73,1.24,0,5.22,1.8,8.42,3.26,2.7-3.2,3.54-4.27,3.54-5.05,0-.51-.39-.9-1.12-.95l-7.97-.62c-1.4.73-9.54,5.05-11.9,5.05-.51,0-.95-.17-1.29-.67l-4.94-7.52c-.28-.39-.34-.73-.34-.95,0-.51.28-.79.73-1.01,5.84-2.47,11.68-6.85,15.38-9.94.28-.22.67-.45,1.07-.45.62,0,.73.06,3.82,4.55l17.29,1.4c2.36.17,5.39,2.25,5.39,5.73,0,2.98-2.47,9.77-8.08,16.68,3.76,2.25,5,3.48,5,4.44,0,.28-.11.5-.34.79l-6.23,6.79ZM448.07,518.24h-.39c-.79,0-1.18-.28-1.35-.84l-1.18-4.32c-.06-.28-.11-.45-.11-.67,0-.67.45-.9,1.07-1.01l4.1-.51h.17c.79,0,1.35.67,1.52,1.35l.95,4.21c.06.17.06.34.06.5,0,.62-.39.95-1.35,1.07l-3.48.22ZM458.97,518.69c-.28.22-.56.34-.79.34-.39,0-.73-.22-1.01-.5l-3.59-3.87c-.28-.28-.39-.56-.39-.79,0-.39.39-.67.62-.84l2.86-2.19c.28-.22.56-.28.84-.28.45,0,.84.22,1.24.51l3.26,2.98.17.11c.34.28.45.56.45.84,0,.34-.22.67-.56,1.01l-3.09,2.69Z"/>
    <path class="cls-12" d="M461.21,560.61c-.17,0-.34.06-.51.06-.84,0-1.01-.45-1.24-1.07-2.53-8.59-2.53-8.76-2.53-8.98,0-.62.28-1.07.79-1.12l6.57-.79c.17,0,.34-.06.51-.06.51,0,1.07.17,1.46.79,1.52,2.19,3.76,6.57,3.76,8.65,0,.67-.22,1.29-1.07,1.4l-7.75,1.12ZM468.17,575.43c-.39-.17-.73-.62-.73-1.12,0-.17.06-.39.22-.56,3.99-4.66,8.03-11.34,11.12-17.46l-5.84,1.01c-.22.06-.45.06-.62.06-.79,0-.95-.34-1.12-.95-1.96-5.67-2.69-8.7-2.69-8.98,0-.56.22-1.07.73-1.12l6.34-.95c.17,0,.34-.06.51-.06.56,0,1.07.17,1.46.73.95,1.4,2.47,3.87,3.31,6.12.9-1.91,1.68-3.71,2.25-5.22.22-.39.67-.62,1.07-.62.17,0,.34.06.51.11l7.64,3.37c.45.22.62.62.62,1.01,0,1.85-6.06,17.63-16.73,26.67-.22.39-.62.56-1.01.56-.17,0-.39-.06-.56-.11l-6.46-2.47Z"/>
    <path class="cls-20" d="M518.64,583.96h-.11c-.73,0-1.35-.56-1.46-1.18l-2.02-13.53-14.49.84c-.67,0-1.24-.5-1.29-1.24l-.39-7.92v-.17c0-.62.22-1.07.84-1.12l13.76-.79-.84-5.73-10.61-.28c-.67-.06-1.18-.56-1.18-1.18v-.11l.11-7.92c0-.73.56-1.24,1.29-1.24l8.81.22c-.22-1.8-.73-5.33-.73-5.67,0-.62.45-1.35,1.35-1.52,2.92-.34,7.97-.79,9.83-1.07h.39c1.18,0,1.8.62,1.91,1.24.39,1.85.84,4.38,1.35,7.41l10.67.28c.62,0,1.18.51,1.18,1.18v.11l-.11,7.92c0,.67-.62,1.18-1.29,1.18l-8.98-.22.56,4.6,11.85-.67h.11c.62,0,1.46.56,1.52,1.24l.39,7.86c0,.73-.5,1.29-1.18,1.29l-11.51.67c.95,9.94.95,13.59.95,13.64,0,.67-.45,1.24-1.18,1.29l-9.49.56Z"/>
    <path class="cls-10" d="M550.27,565.62c-.61.09-1.47-.35-1.58-1.07l-1.5-10.11c-.1-.67.54-1.33,1.15-1.42l37.72-5.53c.61-.09,1.41.36,1.52,1.08l1.49,10.05c.1.67-.55,1.27-1.16,1.36l-37.65,5.63Z"/>
    <path class="cls-26" d="M604.65,555.92c-5.22,0-9.43-4.21-9.43-9.43s4.21-9.43,9.43-9.43,9.43,4.21,9.43,9.43-4.21,9.43-9.43,9.43Z"/>
    <path class="cls-8" d="M637.02,575.58c-.57.24-1.21.02-1.45-.55l-18.29-43.65c-.24-.57.03-1.23.6-1.47l10.2-4.27c.57-.24,1.18.05,1.42.62l7.44,17.76,1.13-4.86c.15-.67.55-1.02,1.07-1.24,1.55-.65,10.65-2.03,16.18-1.48.7.07,1.11.33,1.28.74.2.47.12.86-1.66,12.45-.09.52-.38.83-.75.98s-.79.15-1.11.1c-3.26-.52-9.79-1.13-13.9-1.36l8.62,20.56c.24.57,0,1.16-.57,1.4l-10.2,4.27Z"/>
    <path class="cls-22" d="M694.86,565.16l-31.92-8.49c-1.41-.38-2.29-1.57-1.96-2.99l.03-.11,7.15-28.37c.39-1.7,1.74-2.77,3.65-2.32l.11.03,27.33,6.9c4.57,1.17,7.36,4.3,6.23,9.17l-.14.6-6.7,23.46c-.59,2.05-2.24,2.48-3.61,2.16l-.16-.04ZM691.05,541.8l.04-.16c.35-1.53-.33-2.56-1.53-2.83l-11.99-3.24-3.3,13.01,13.94,3.75,2.84-10.52Z"/>
    <path class="cls-13" d="M727.76,538.77c-.7.3-1.12.38-1.45.31-.38-.09-.59-.42-.89-.89-6.32-10.23-7.16-11.63-6.95-12.56.06-.27.22-.47.53-.57l8.44-3.22c.58-.27,1.19-.42,1.74-.3,1.59.36,10.05,9.29,9.41,12.14-.1.44-.34.73-.85.96l-9.97,4.14ZM758.33,553.49c.07.19.04.35.01.46-.09.38-.39.72-.78.92-11.61,5.55-23.37,8.66-34.98,9.38-.18.02-.35.04-.52,0-.38-.09-.72-.39-.85-.82l-3.23-10.92c-.02-.18-.04-.35,0-.52.09-.38.39-.72.82-.85,9.35-1.4,27.57-5.35,35.38-8.08.18-.02.35-.04.46-.01.38.09.72.39.85.82l2.84,9.62Z"/>
    <path class="cls-30" d="M423.33,569.01c-7.87-7.57-20.77-10.56-31.58,6.99-4.43-20.13-17.59-21.56-27.52-17-8.23,3.78-10.56,14.4-4.79,21.38l26.37,30.68h0s0,0,0,0h0s0,0,0,0l35-20.28c7.74-4.69,9.05-15.49,2.52-21.77Z"/>
    <circle class="cls-31" cx="621.07" cy="429.86" r="20.09"/>
    <polygon class="cls-29" points="536.17 439.28 494.13 388.94 471.55 450.52 536.17 439.28 494.13 388.94 471.55 450.52 536.17 439.28"/>
    <polygon class="cls-32" points="832.98 502.34 825.81 536.07 855.66 553.3 821.38 556.91 814.21 590.63 800.19 559.13 765.9 562.74 791.52 539.67 777.5 508.18 807.36 525.41 832.98 502.34"/>
    <path class="cls-9" d="M618.32,479.44c-5.72-1.45-9.16-7.23-7.72-12.88s7.23-9.16,12.95-7.71,9.09,7.21,7.64,12.93-7.21,9.09-12.86,7.65ZM604.06,517.13l-.14-.04c-.77-.19-1.17-.97-1.04-1.75l6.89-34.43c.21-.84.93-1.32,1.79-1.18l14.14,2.85.14.04c.7.18,1.17.96.99,1.66l-6.91,34.5-.04.14c-.18.7-.96,1.17-1.68,1.06l-14.14-2.85Z"/>
    <path class="cls-15" d="M656.41,522.59c-16.26,1.71-25.59-8.53-26.73-19.42-1.08-10.24,5.03-21.74,21.35-23.46,17.76-1.87,20.21,13.88,20.46,16.24.35,3.29-.73,6.16-4.8,8.03-3.25,1.5-8.46,2.84-12.17,3.38-1.15.12-1.56-.34-1.93-1.17-1.11-2.27-2.96-6.78-2.99-7.07-.08-.79.45-1.21,1.36-1.52,3.63-1.25,4.12-1.45,4.01-2.45-.07-.64-1.67-2.79-4.68-2.48-3.44.36-5.99,3.67-5.52,8.11.53,5.08,4.86,10.42,13.81,9.48.5-.05,1.07-.11,1.57-.24l.14-.02c1-.11,2.29.41,2.42,1.63.08.72-1.27,5.78-2.09,8.33-.45,1.21-1.28,2.31-3.36,2.52l-.86.09Z"/>
  </g>
</svg>