<?xml version="1.0" encoding="UTF-8"?>
<svg xmlns="http://www.w3.org/2000/svg" xmlns:xlink="http://www.w3.org/1999/xlink" viewBox="0 0 1000 1000">
  <defs>
    <style>
      .cls-1 {
        fill: url(#radial-gradient);
      }

      .cls-2 {
        fill: #ae445a;
      }
    </style>
    <radialGradient id="radial-gradient" cx="500" cy="500" fx="500" fy="500" r="462.91" gradientUnits="userSpaceOnUse">
      <stop offset="0" stop-color="#fff"/>
      <stop offset="1" stop-color="#e8bcb9"/>
    </radialGradient>
  </defs>
  <g id="Layer_1">
    <circle class="cls-1" cx="500" cy="500" r="462.91"/>
  </g>
  <g id="Layer_3">
    <g>
      <path class="cls-2" d="M842.36,459.39c-4.4,1.87-42.06,14.73-52.28,21.87-18.44,12.89-26.47,34.99-37.5,38.26-2.36.7-4.33.86-5.64-.16-1.7-1.32-1.62-4.07-1.56-5.29.64-14.09,6.79-35.51,1.13-40.75-3.13-2.9-9.65-.64-19.24,2.67-8.23,2.85-14.35,6.7-18.22,9.49.55-7.83-.71-10.14-2.07-10.69-5.02-2.03-15.59,18.36-38.73,43.42-10.37,11.24-25,26.88-31.29,23.51-1.1-.58-2.44-2.01-5.91-30.71-.32-2.66-.58-4.92-.77-6.58-.4,2.48-1.01,5.91-1.95,9.96-7,30.17-23.77,58.96-29.78,57.14-2.04-.62-3.76-5.04-2.37-21.68-.83-4.32-2.91-11.59-8.51-14.07-7.88-3.48-18.02,4.56-26.22,11.23-21.2,17.25-22.61,30.78-45.41,51.11-4.59,4.09-9.52,8.08-15.7,11.89-6.71,4.14-15.01,8.24-25.23,11.67,1.56-.11,3.15-.27,4.74-.49,25.05-3.34,44.59-17.86,58.37-32.18-.8,10.49,3.05,14.19,4.22,15.17,8.02,6.68,25.24-1.7,34.59-10.31,5.51-5.07,8.68-10.58,10.47-14.4,1.39,4.53,3.32,7.15,5.81,7.88,6.89,2,18.02-10.57,33.38-37.72,6.51,1.28,8.32,6.66,20.95,2.62,28.2-9.05,43.35-35.94,44.89-40.04.11,7.53.21,15.06.32,22.58,3.26-.7,7.85-2.27,10.64-6.22,4.95-6.99-1.06-13.93,3.82-23.78,3.49-7.05,10.05-10.53,12-11.56,4.39-2.33,7.4-3.93,9.6-2.73,5.98,3.25-4.76,22.35,4.03,32.62,4.84,5.65,13.05,6.29,14.35,6.38,6.99.49,12.51-2.67,14.67-3.95,4.54-2.67,6.69-5.49,18.17-18.88,5.77-6.73,8.25-9.53,10.54-11.83.85-.85,1.29-1.28,1.93-1.86,5.16-4.72,10.18-7.12,12.79-8.35,5.97-2.8,26.38-11.02,54.64-20.89-5.89-1.45-11.78-2.91-17.67-4.36ZM576,575.43c-7.46,11.35-20.56,21.33-25.02,18.38-3.81-2.52-.71-14.07,2.18-20.73,7.35-16.91,25.21-29.42,30.11-25.96,4.23,2.98-.67,18.26-7.27,28.31Z"/>
      <path class="cls-2" d="M380.06,542.65c-.8-1.26-3.1-4.87-6.44-5.07,0,0-3.61-.22-7.64,5.07-7.7,10.11-13.31,155.44-15.11,206.02,2.66-4.3,6.06-10.54,8.84-18.49,4.48-12.8,31.19-170.46,20.35-187.53Z"/>
      <path class="cls-2" d="M503.34,724.83c-9.74,7.56-22.65,16.2-36.82,13.42-10.73-2.11-17.18-9.8-18-10.8-8.77-10.76-6.67-24.08-5.18-45,.95-13.35,1.85-32.57,1.32-56.51,44.97-45.05,62.72-96.16,45.16-126.27-3.4-5.83-9.18-12.68-19.58-18.6-7.84-4.01-19.48-8.44-34.42-9.05-38.96-1.6-136.47,38.13-156.93,95.07-5.36,14.92-3.52,32.57,4.15,38.35,8.18,6.16,15.42,5.91,28.42,2.07,15.77-4.66,27.62-19.23,30.6-37.31-3.9,5.23-20.04,25.77-42.05,25.85-3.62.01-7.14-.02-9.11-2.4-6.51-7.86,9.84-34.14,25.15-50.62,30.85-33.21,94.09-58.75,128.62-43.64,24.14,10.56,19.41,56.19,19.14,58.85-2.82,28.11-19.3,47.06-26.73,54.6-2.39-1.12-13.42-5.98-25.64-1.42-12.02,4.49-20.43,16.33-21.49,30.22-.08,1.52-.47,12.39,6.27,17.24,7.73,5.55,29.67-.49,32.7-17.59-9.85,55.55-18.19,105.3,9.97,120.27,3.21,1.97,8.33,4.61,14.98,5.9,22.92,4.45,43.48-11.18,59.63-23.82,11.2-8.76,22.8-19.9,36.82-38.13,12.39-16.11,28.74-40.47,42.98-73.69-9.8,11.94-53.63,64.84-89.95,93ZM422.8,637.34c-3.68,8.66-14.19,15.5-19.64,12.44-4.27-2.39-4.95-10.58-2.73-16.25,3.79-9.68,17.11-14.82,21.93-11.02,3.57,2.82,2.31,10.43.44,14.84Z"/>
      <path class="cls-2" d="M641.79,429.41c-5.08,3.84-24.02,28.67-23.15,45.25.05.95.71,11.56,5.56,12.93,5.35,1.51,12.2-9.25,12.67-9.98,8.25-13.2,7.13-41.33,4.92-48.19ZM630.78,475.83c-1.44,2.72-3.01,5.16-4.61,7.34-.58-2.27-1-4.72-1.17-7.34-1.11-16.48,8.17-29.35,12.68-34.78.58,8.3.14,21.5-6.9,34.78Z"/>
      <path class="cls-2" d="M622.13,347.14c-2.96-1.59-8.54-5.3-12.85-13.8,48.21-21.07,96.42-42.15,144.63-63.22-5.89-1.45-11.78-2.91-17.67-4.36-42.32,17.95-84.64,35.89-126.95,53.84,1.63-11.22,3.26-22.45,4.89-33.67-2.53,1.86-5.18,4.16-7.75,6.98-10.54,11.61-13.25,25.21-14.07,32.4-7.79,3.25-15.58,6.51-23.37,9.76-4.67,2.25-6.23,7.42-4.42,10.64,1.26,2.24,4.14,3.5,7.2,3.27,5.19-2.2,10.38-4.39,15.57-6.59-6.19,9.84-42.3,66.49-62.73,59.24-3.94-1.4-9.11-5.81-12.08-20.51,2.38-.64,30.79-8.71,35.32-30.33.58-2.78,2.29-10.92-1.96-14.84-7.45-6.86-30.49,1.72-42.65,17.13-8.5,10.77-10.04,22.79-10.36,28.91-4.07,5.88-36.27,51.73-52.47,44.95-2.49-1.04-5.26-3.6-7.17-9.93,24.54-14.1,39.71-29.24,36.66-38.43-1.44-4.36-6.73-6.64-8.19-7.27-13.03-5.62-27.9,6.26-30.02,7.95-14.14,11.3-16,28.65-16.34,33.05-2.09,1.32-5.18,3.01-9.19,4.25-4.99,1.55-7.49,2.33-8.86,1.34-3.95-2.85-.29-16.87-.41-28.83,0-.72-.08-2.54-1.31-3.93-1.9-2.15-5.58-2.47-7.85-.65-1.73,1.39-1.98,3.51-2.03,4.05.08,3.31.12,8.09-.15,13.84-.82,17.79-1.54,30.31-9.49,40.36-2.06,2.61-7.99,10.09-14.21,8.69-4.52-1.02-6.86-6.22-7.57-7.96-.25-1.57-.5-3.88-.32-6.65.29-4.53,1.48-6.53.24-8.93-.71-1.38-2.23-2.9-3.85-2.84-2.36.08-4.94,3.33-4.77,5.36.77,9.26-1.57,15.83-3.08,19.17-1.6,3.53-3.9,8.65-8.7,9.97-2.52.7-5.03.17-6.05-.33-2.67-1.29-7.37-8.24,6-57.67-.58-2.73-2.1-5.14-4.15-5.67-3.01-.78-7.62,2.39-8.63,8.47-.99,6.01-3.23,10.84-5.23,19.28-1.6,6.76-1.9,10.24-2.42,14.07-.78,5.73-1.46,12.52-1.75,20.19-3.72,1.14-7.43,2.29-11.14,3.44-5.98,1.85-11.96,3.71-17.92,5.56-2.32-4.36-6.05-10.37-11.86-16.42-2.6-2.71-12.52-13.01-29.29-18.91-28.04-9.86-34.3-7.67-46.14-16.02-18.87-13.31-20.43-40.57-20.78-46.64-1.42-24.69,10.47-42.26,15.55-49.75,13.53-19.98,31.4-29.29,39.71-32.97-4.16,6.29-11.19,18.77-13.04,36.01-2.46,22.86,5.66,40.27,9.22,46.96,4.57-8.03,10.43-20.47,13.53-36.65.5-2.59.88-5.11,1.19-7.56.91,8.21,2.73,17.11,6.01,26.38,2.28,6.45,4.95,12.17,7.69,17.18,3.28-7.87,7.44-20.56,8.02-36.65.14-3.85.05-7.5-.18-10.95,1.58,5.11,3.7,10.57,6.56,16.19,6.33,12.4,14.03,21.21,19.8,26.84,2.02-10.01,3.72-26.15-1.47-44.51-3.26-11.53-9.66-34.15-29.99-44.09-15.32-7.49-30.57-4.6-38.92-2.91-29.87,6.03-60.07,29.4-72.08,63.56-9.44,26.85-9.4,65.38,12.11,87.38,11.11,11.37,26.29,16.62,35.02,19.64,23.61,8.17,40.5,3.93,54.65,17.36,5.54,5.26,8.5,11.12,10.05,14.87-23.36,7.52-40.98,16.7-52.76,23.74-22.21,13.27-27.02,20.91-28.63,28.13-.18.82-2.72,13.05,4.55,23.14,13.36,18.55,45.66,10.18,48.65,9.38,11.13-2.97,18.44-8.52,23.16-12.18,19.36-14.99,25.65-35.85,28.33-44.99,2.59-8.81,3.51-16.44,3.87-21.75,3.62-1.58,7.42-3.14,11.4-4.66,5.12-1.96,10.07-3.68,14.83-5.2.16.76.46,1.85,1.04,3.05,0,0,2.84,5.37,9.45,8.05,9.02,3.66,22.18-2.65,25.12-15.76,2.45,1.68,13.8,9.07,25.5,5.29,13.68-4.42,18.27-21.03,20.29-28.36,1.91-6.9,2.12-12.89,1.99-16.85,4.03-.3,8.96-1.06,14.37-2.78,2.95-.94,5.58-2.02,7.88-3.11,3.77,16.46,10.98,20.68,13.79,21.94,15.36,6.86,43.22-10.44,65.38-47.41,3.58,5.69,11.46,16.21,24.07,19.01,19.1,4.24,36.41-12.02,49.89-24.68,7.99-7.51,20.04-20.79,29.48-41.51,10.14,8.71,19.58,11.61,25.5,12.71,26.81,4.97,57.08-12.89,76.07-44.88-9.36,5.8-18.71,11.59-28.07,17.39-15.89,16.42-36.72,21.74-50.84,14.18ZM265.03,287.92c4.88,6.16,11.16,15.58,15.71,28.23,6.07,16.88,6.26,31.73,5.67,40.61-5.53-6.67-14.38-19.15-18.93-37.09-3.28-12.94-3.16-24.15-2.45-31.75ZM248.44,287.27c3.43,6.86,7.66,17.4,9.3,30.85,2.19,18.04-1.35,32.64-4.01,40.83-3.67-8.53-8.3-22.23-8.92-39.6-.47-13.21,1.54-24.23,3.63-32.07ZM234.92,287.92c1.65,8.64,3.1,21.41,1.22,36.64-1.89,15.35-6.44,27.46-10.17,35.46-2.53-6.3-6.72-19.21-5.02-35.67,1.88-18.21,9.94-30.9,13.96-36.44ZM248.28,521.29c-4.07,6.85-10.71,18.04-23.78,22.66-1.95.69-16.67,5.7-23.84-1.55,0,0-3.54-3.58-3.78-9.74-.77-19.44,53.68-40.05,61.05-42.79-.59,8.23-2.73,19.76-9.65,31.42ZM439.9,389.08c8.91-8.59,19.89-8.7,22.17-8.67-2.18,4.15-6.45,10.95-14.07,17.02-6.54,5.21-12.96,7.82-17.18,9.16.45-2.77,2.11-10.79,9.08-17.51ZM517.85,352.53c8.32-10.08,20.45-10.45,22.25-10.47-.33,2.8-1.76,11.71-9.27,19.42-7.67,7.87-16.77,9.45-19.53,9.82-.02-2.49.21-11.08,6.55-18.76Z"/>
    </g>
  </g>
</svg>